<mxfile host="65bd71144e">
    <diagram id="K0xmtQMnlVvK2CBCNNi8" name="Page-1">
        <mxGraphModel dx="717" dy="1580" grid="1" gridSize="10" guides="1" tooltips="1" connect="1" arrows="1" fold="1" page="1" pageScale="1" pageWidth="850" pageHeight="1100" math="0" shadow="0">
            <root>
                <mxCell id="0"/>
                <mxCell id="1" parent="0"/>
                <mxCell id="10" style="edgeStyle=none;html=1;entryX=0;entryY=0.5;entryDx=0;entryDy=0;startArrow=classic;startFill=1;" edge="1" parent="1" source="2" target="3">
                    <mxGeometry relative="1" as="geometry"/>
                </mxCell>
                <mxCell id="2" value="Приложение" style="rounded=0;whiteSpace=wrap;" vertex="1" parent="1">
                    <mxGeometry x="120" y="-720" width="120" height="80" as="geometry"/>
                </mxCell>
                <mxCell id="11" style="edgeStyle=none;html=1;entryX=0;entryY=0.5;entryDx=0;entryDy=0;startArrow=classic;startFill=1;" edge="1" parent="1" source="3" target="4">
                    <mxGeometry relative="1" as="geometry"/>
                </mxCell>
                <mxCell id="3" value="3D API" style="rounded=0;whiteSpace=wrap;" vertex="1" parent="1">
                    <mxGeometry x="280" y="-720" width="120" height="80" as="geometry"/>
                </mxCell>
                <mxCell id="12" style="edgeStyle=none;html=1;entryX=0;entryY=0.5;entryDx=0;entryDy=0;startArrow=classic;startFill=1;" edge="1" parent="1" source="4" target="5">
                    <mxGeometry relative="1" as="geometry"/>
                </mxCell>
                <mxCell id="4" value="Драйвер" style="rounded=0;whiteSpace=wrap;" vertex="1" parent="1">
                    <mxGeometry x="440" y="-720" width="120" height="80" as="geometry"/>
                </mxCell>
                <mxCell id="5" value="Графический ускоритель" style="rounded=0;whiteSpace=wrap;" vertex="1" parent="1">
                    <mxGeometry x="600" y="-720" width="120" height="80" as="geometry"/>
                </mxCell>
            </root>
        </mxGraphModel>
    </diagram>
</mxfile>